<svg width="33" height="33" viewBox="0 0 33 33" fill="none" xmlns="http://www.w3.org/2000/svg">
<path d="M32.6782 13.266H31.35V13.2H16.5V19.8H25.8225C24.4613 23.6445 20.8065 26.4 16.5 26.4C11.0302 26.4 6.6 21.9697 6.6 16.5C6.6 11.0302 11.0302 6.6 16.5 6.6C19.0245 6.6 21.318 7.54875 23.067 9.108L27.7365 4.4385C24.7913 1.69125 20.8477 0 16.5 0C7.38375 0 0 7.38375 0 16.5C0 25.6163 7.38375 33 16.5 33C25.6163 33 33 25.608 33 16.5C33 15.3945 32.8845 14.3138 32.6782 13.266Z" fill="#FFC107"/>
<path d="M1.90575 8.81925L7.326 12.7957C8.7945 9.16575 12.342 6.6 16.5 6.6C19.0245 6.6 21.318 7.54875 23.067 9.108L27.7365 4.4385C24.7913 1.69125 20.8477 0 16.5 0C10.164 0 4.6695 3.5805 1.90575 8.81925Z" fill="#FF3D00"/>
<path d="M16.5 33C20.7653 33 24.6345 31.3665 27.5632 28.7183L22.4565 24.3953C20.7983 25.6493 18.744 26.4 16.5 26.4C12.21 26.4 8.5635 23.661 7.194 19.8412L1.815 23.991C4.54575 29.337 10.0897 33 16.5 33Z" fill="#4CAF50"/>
<path d="M32.6782 13.266H31.35V13.2H16.5V19.8H25.8225C25.1708 21.648 23.9827 23.2403 22.4482 24.3953L27.555 28.7183C27.192 29.0483 32.9918 24.75 32.9918 16.5C32.9918 15.3945 32.8763 14.3138 32.67 13.266H32.6782Z" fill="#1976D2"/>
</svg>
